<svg fill="#000000" height="200px" width="200px" version="1.1" id="Layer_1" xmlns="http://www.w3.org/2000/svg" xmlns:xlink="http://www.w3.org/1999/xlink" viewBox="0 0 512 512" xml:space="preserve"><g id="SVGRepo_bgCarrier" stroke-width="0"></g><g id="SVGRepo_tracerCarrier" stroke-linecap="round" stroke-linejoin="round"></g><g id="SVGRepo_iconCarrier"> <g> <g> <circle cx="394.894" cy="394.894" r="8.17"></circle> </g> </g> <g> <g> <circle cx="394.894" cy="441.115" r="8.17"></circle> </g> </g> <g> <g> <path d="M460.255,65.362h-13.617V51.745C446.638,23.213,423.425,0,394.894,0s-51.745,23.213-51.745,51.745v43.929l-69.818,69.817 c-3.191,3.191-3.191,8.364,0,11.554c3.191,3.19,8.363,3.192,11.556,0l72.211-72.211c1.532-1.532,2.392-3.61,2.392-5.777V51.745 c0-19.521,15.882-35.404,35.404-35.404c19.522,0,35.404,15.883,35.404,35.404v21.787c0,4.512,3.657,8.17,8.17,8.17h21.787 c19.522,0,35.404,15.883,35.404,35.404s-15.882,35.404-35.404,35.404h-47.313c-2.167,0-4.244,0.861-5.778,2.393l-72.211,72.211 c-3.191,3.191-3.191,8.364,0,11.554c1.596,1.596,3.686,2.393,5.778,2.393c2.09,0,4.182-0.797,5.778-2.393l69.817-69.817h43.929 c28.531,0,51.745-23.213,51.745-51.745C512,88.575,488.787,65.362,460.255,65.362z"></path> </g> </g> <g> <g> <path d="M238.668,334.956c-3.19-3.192-8.363-3.192-11.554-0.001l-72.211,72.211c-1.533,1.532-2.393,3.61-2.393,5.777v47.313 c0,19.521-15.883,35.404-35.404,35.404s-35.404-15.883-35.404-35.404v-21.787c0-4.512-3.658-8.17-8.17-8.17H51.745 c-19.521,0-35.404-15.883-35.404-35.404s15.883-35.404,35.404-35.404h47.313c2.167,0,4.245-0.861,5.777-2.393l72.211-72.211 c3.191-3.191,3.191-8.364,0-11.554c-3.191-3.191-8.364-3.191-11.554,0l-69.818,69.817H51.745C23.213,343.149,0,366.362,0,394.894 s23.213,51.745,51.745,51.745h13.617v13.617c0,28.531,23.213,51.745,51.745,51.745c28.531,0,51.745-23.213,51.745-51.745v-43.929 l69.817-69.817C241.859,343.319,241.859,338.146,238.668,334.956z"></path> </g> </g> <g> <g> <path d="M460.255,343.149h-43.929L168.851,95.673V51.745C168.851,23.213,145.638,0,117.106,0 C88.575,0,65.362,23.213,65.362,51.745v13.617H51.745C23.213,65.362,0,88.575,0,117.106c0,28.531,23.213,51.745,51.745,51.745 h43.929l247.476,247.476v43.929c0,28.531,23.213,51.745,51.745,51.745s51.745-23.213,51.745-51.745v-13.617h13.617 c28.531,0,51.745-23.213,51.745-51.745S488.787,343.149,460.255,343.149z M460.255,430.298h-21.787c-4.513,0-8.17,3.658-8.17,8.17 v21.787c0,19.521-15.882,35.404-35.404,35.404s-35.404-15.883-35.404-35.404v-47.313c0-2.167-0.861-4.245-2.392-5.777 L104.835,154.904c-1.532-1.533-3.61-2.393-5.777-2.393H51.745c-19.521,0-35.404-15.883-35.404-35.404s15.883-35.404,35.404-35.404 h21.787c4.512,0,8.17-3.658,8.17-8.17V51.745c0-19.521,15.883-35.404,35.404-35.404s35.404,15.883,35.404,35.404v47.312 c0,2.167,0.861,4.245,2.393,5.777l252.261,252.262c1.533,1.533,3.61,2.393,5.778,2.393h47.312 c19.522,0,35.404,15.883,35.404,35.404S479.778,430.298,460.255,430.298z"></path> </g> </g> </g></svg>