<svg height="200px" width="200px" version="1.1" id="_x32_" xmlns="http://www.w3.org/2000/svg" xmlns:xlink="http://www.w3.org/1999/xlink" viewBox="0 0 512 512" xml:space="preserve" fill="#ffffff" transform="matrix(-1, 0, 0, 1, 0, 0)" stroke="#ffffff"><g id="SVGRepo_bgCarrier" stroke-width="0"></g><g id="SVGRepo_tracerCarrier" stroke-linecap="round" stroke-linejoin="round"></g><g id="SVGRepo_iconCarrier"> <style type="text/css"> .st0{fill:#ffffff;} </style> <g> <path class="st0" d="M500.325,218.306l-34.024-54.143c-11.508-18.302-31.61-29.402-53.216-29.402H254.627 c-26.636,0-52.176,10.719-70.849,29.745l-45.216,46.107L30.738,235.578C12.734,239.754,0,255.792,0,274.26v42.348 c0,9.122,7.406,16.538,16.539,16.538h71.406c2.134,24.668,22.608,44.093,47.833,44.093s45.698-19.425,47.833-44.093h165.309 c2.135,24.668,22.608,44.093,47.833,44.093c25.225,0,45.679-19.425,47.833-44.093h50.858c9.151,0,16.557-7.416,16.557-16.538 v-57.81C512,244.469,507.954,230.446,500.325,218.306z"></path> </g> </g></svg>